<svg width="88" height="30" viewBox="0 0 88 30" fill="none" xmlns="http://www.w3.org/2000/svg">
<g clip-path="url(#clip0_0_84)">
<path d="M20.3993 15.9409C20.3631 12.1448 23.5006 10.3209 23.6417 10.234C21.8758 7.6538 19.1327 7.29915 18.1556 7.25934C15.8215 7.0205 13.5995 8.6345 12.4125 8.6345C11.2256 8.6345 9.39807 7.29191 7.462 7.33172C4.91435 7.36791 2.56574 8.81182 1.25211 11.0917C-1.38963 15.6731 0.579008 22.4765 3.15923 26.2003C4.42219 28.0205 5.92038 30.0724 7.89626 29.9964C9.79976 29.9204 10.5163 28.766 12.8106 28.766C15.1049 28.766 15.7527 29.9964 17.7612 29.9602C19.8058 29.9204 21.1013 28.1001 22.3534 26.2726C23.7937 24.1556 24.3908 22.111 24.427 22.0024C24.38 21.9843 20.4427 20.4753 20.3993 15.9409Z" fill="#D2D1DA"/>
<path d="M16.6249 4.79132C17.6744 3.52111 18.3801 1.75875 18.1883 0C16.6792 0.0615199 14.8517 1.00603 13.7697 2.27624C12.7998 3.39807 11.9494 5.193 12.181 6.91556C13.8565 7.04584 15.5791 6.0579 16.6249 4.79132ZM33.6334 19.6719L31.8964 24.9373H29.6635L35.3487 8.20386H37.9543L43.6611 24.9373H41.3523L39.5646 19.6719H33.6334ZM39.1195 17.9819L37.4838 13.1653C37.1111 12.0724 36.865 11.0808 36.6153 10.111H36.5682C36.3186 11.1025 36.0471 12.1194 35.7251 13.1399L34.0894 17.9783L39.1195 17.9819ZM45.3547 16.842C45.3547 15.304 45.3077 14.0591 45.2534 12.9192H47.2148L47.3161 14.9819H47.3632C48.257 13.5163 49.672 12.6478 51.6334 12.6478C54.5393 12.6478 56.7215 15.1049 56.7215 18.7563C56.7215 23.0772 54.0906 25.2087 51.2607 25.2087C49.672 25.2087 48.2824 24.5139 47.5622 23.3233H47.5152V29.8516H45.3547V16.842ZM47.5116 20.0446C47.5116 20.3703 47.5586 20.6635 47.6129 20.9385C48.011 22.4511 49.3246 23.497 50.8915 23.497C53.2003 23.497 54.5429 21.6116 54.5429 18.854C54.5429 16.4439 53.2763 14.3884 50.9675 14.3884C49.4802 14.3884 48.0906 15.456 47.6635 17.0953C47.5876 17.3667 47.5152 17.6924 47.5152 17.9891L47.5116 20.0446ZM58.9796 16.842C58.9796 15.304 58.9326 14.0591 58.8783 12.9192H60.8397L60.941 14.9819H60.988C61.8819 13.5163 63.2968 12.6478 65.2582 12.6478C68.1642 12.6478 70.3463 15.1049 70.3463 18.7563C70.3463 23.0772 67.7154 25.2087 64.8855 25.2087C63.2968 25.2087 61.9072 24.5139 61.1871 23.3233H61.14V29.8516H58.9796V16.842ZM61.14 20.0446C61.14 20.3703 61.1871 20.6635 61.2414 20.9385C61.6394 22.4511 62.9531 23.497 64.52 23.497C66.8288 23.497 68.1714 21.6116 68.1714 18.854C68.1714 16.4439 66.9048 14.3884 64.596 14.3884C63.1087 14.3884 61.719 15.456 61.292 17.0953C61.216 17.3667 61.1436 17.6924 61.1436 17.9891L61.14 20.0446ZM72.6081 7.31001H74.7938V24.9337H72.6081V7.31001ZM79.1871 19.3245C79.2341 22.2774 81.1231 23.497 83.3053 23.497C84.8686 23.497 85.8131 23.2256 86.631 22.8782L87.0037 24.4415C86.2365 24.7889 84.9193 25.187 83.0086 25.187C79.3101 25.187 77.099 22.7551 77.099 19.1291C77.099 15.503 79.2341 12.6478 82.7335 12.6478C86.6563 12.6478 87.6985 16.0965 87.6985 18.3076C87.6985 18.7563 87.6515 19.1001 87.6225 19.3245H79.1871ZM85.5924 17.7612C85.6177 16.3715 85.0206 14.2111 82.5634 14.2111C80.3523 14.2111 79.3861 16.2485 79.2124 17.7612H85.5924Z" fill="#D2D1DA"/>
</g>
<defs>
<clipPath id="clip0_0_84">
<rect width="87.7021" height="30" fill="white"/>
</clipPath>
</defs>
</svg>
