<svg width="186" height="42" viewBox="0 0 186 42" fill="none" xmlns="http://www.w3.org/2000/svg">
<path d="M51.292 10.28V31H48.1V10.28H51.292ZM54.4188 23.216C54.4188 21.6667 54.7361 20.2947 55.3708 19.1C56.0241 17.9053 56.9015 16.9813 58.0028 16.328C59.1228 15.656 60.3548 15.32 61.6988 15.32C62.9121 15.32 63.9668 15.5627 64.8628 16.048C65.7775 16.5147 66.5055 17.1027 67.0468 17.812V15.572H70.2668V31H67.0468V28.704C66.5055 29.432 65.7681 30.0387 64.8348 30.524C63.9015 31.0093 62.8375 31.252 61.6428 31.252C60.3175 31.252 59.1041 30.916 58.0028 30.244C56.9015 29.5533 56.0241 28.6013 55.3708 27.388C54.7361 26.156 54.4188 24.7653 54.4188 23.216ZM67.0468 23.272C67.0468 22.208 66.8228 21.284 66.3748 20.5C65.9455 19.716 65.3761 19.1187 64.6668 18.708C63.9575 18.2973 63.1921 18.092 62.3708 18.092C61.5495 18.092 60.7841 18.2973 60.0748 18.708C59.3655 19.1 58.7868 19.688 58.3388 20.472C57.9095 21.2373 57.6948 22.152 57.6948 23.216C57.6948 24.28 57.9095 25.2133 58.3388 26.016C58.7868 26.8187 59.3655 27.4347 60.0748 27.864C60.8028 28.2747 61.5681 28.48 62.3708 28.48C63.1921 28.48 63.9575 28.2747 64.6668 27.864C65.3761 27.4533 65.9455 26.856 66.3748 26.072C66.8228 25.2693 67.0468 24.336 67.0468 23.272ZM77.6514 17.812C78.118 17.028 78.734 16.4213 79.4994 15.992C80.2834 15.544 81.2074 15.32 82.2714 15.32V18.624H81.4594C80.2087 18.624 79.2567 18.9413 78.6034 19.576C77.9687 20.2107 77.6514 21.312 77.6514 22.88V31H74.4594V15.572H77.6514V17.812ZM84.1415 23.216C84.1415 21.6667 84.4588 20.2947 85.0935 19.1C85.7468 17.9053 86.6241 16.9813 87.7255 16.328C88.8455 15.656 90.0775 15.32 91.4215 15.32C92.6348 15.32 93.6895 15.5627 94.5855 16.048C95.5001 16.5147 96.2281 17.1027 96.7695 17.812V15.572H99.9895V31H96.7695V28.704C96.2281 29.432 95.4908 30.0387 94.5575 30.524C93.6241 31.0093 92.5601 31.252 91.3655 31.252C90.0401 31.252 88.8268 30.916 87.7255 30.244C86.6241 29.5533 85.7468 28.6013 85.0935 27.388C84.4588 26.156 84.1415 24.7653 84.1415 23.216ZM96.7695 23.272C96.7695 22.208 96.5455 21.284 96.0975 20.5C95.6681 19.716 95.0988 19.1187 94.3895 18.708C93.6801 18.2973 92.9148 18.092 92.0935 18.092C91.2721 18.092 90.5068 18.2973 89.7975 18.708C89.0881 19.1 88.5095 19.688 88.0615 20.472C87.6321 21.2373 87.4175 22.152 87.4175 23.216C87.4175 24.28 87.6321 25.2133 88.0615 26.016C88.5095 26.8187 89.0881 27.4347 89.7975 27.864C90.5255 28.2747 91.2908 28.48 92.0935 28.48C92.9148 28.48 93.6801 28.2747 94.3895 27.864C95.0988 27.4533 95.6681 26.856 96.0975 26.072C96.5455 25.2693 96.7695 24.336 96.7695 23.272ZM103.118 23.272C103.118 21.6853 103.435 20.2947 104.07 19.1C104.723 17.8867 105.619 16.9533 106.758 16.3C107.897 15.6467 109.203 15.32 110.678 15.32C112.545 15.32 114.085 15.768 115.298 16.664C116.53 17.5413 117.361 18.8013 117.79 20.444H114.346C114.066 19.6787 113.618 19.0813 113.002 18.652C112.386 18.2227 111.611 18.008 110.678 18.008C109.371 18.008 108.326 18.4747 107.542 19.408C106.777 20.3227 106.394 21.6107 106.394 23.272C106.394 24.9333 106.777 26.2307 107.542 27.164C108.326 28.0973 109.371 28.564 110.678 28.564C112.526 28.564 113.749 27.752 114.346 26.128H117.79C117.342 27.696 116.502 28.9467 115.27 29.88C114.038 30.7947 112.507 31.252 110.678 31.252C109.203 31.252 107.897 30.9253 106.758 30.272C105.619 29.6 104.723 28.6667 104.07 27.472C103.435 26.2587 103.118 24.8587 103.118 23.272ZM119.907 23.216C119.907 21.6667 120.224 20.2947 120.859 19.1C121.512 17.9053 122.39 16.9813 123.491 16.328C124.611 15.656 125.843 15.32 127.187 15.32C128.4 15.32 129.455 15.5627 130.351 16.048C131.266 16.5147 131.994 17.1027 132.535 17.812V15.572H135.755V31H132.535V28.704C131.994 29.432 131.256 30.0387 130.323 30.524C129.39 31.0093 128.326 31.252 127.131 31.252C125.806 31.252 124.592 30.916 123.491 30.244C122.39 29.5533 121.512 28.6013 120.859 27.388C120.224 26.156 119.907 24.7653 119.907 23.216ZM132.535 23.272C132.535 22.208 132.311 21.284 131.863 20.5C131.434 19.716 130.864 19.1187 130.155 18.708C129.446 18.2973 128.68 18.092 127.859 18.092C127.038 18.092 126.272 18.2973 125.563 18.708C124.854 19.1 124.275 19.688 123.827 20.472C123.398 21.2373 123.183 22.152 123.183 23.216C123.183 24.28 123.398 25.2133 123.827 26.016C124.275 26.8187 124.854 27.4347 125.563 27.864C126.291 28.2747 127.056 28.48 127.859 28.48C128.68 28.48 129.446 28.2747 130.155 27.864C130.864 27.4533 131.434 26.856 131.863 26.072C132.311 25.2693 132.535 24.336 132.535 23.272ZM158.624 15.32C159.837 15.32 160.92 15.572 161.872 16.076C162.842 16.58 163.598 17.3267 164.14 18.316C164.7 19.3053 164.98 20.5 164.98 21.9V31H161.816V22.376C161.816 20.9947 161.47 19.94 160.78 19.212C160.089 18.4653 159.146 18.092 157.952 18.092C156.757 18.092 155.805 18.4653 155.096 19.212C154.405 19.94 154.06 20.9947 154.06 22.376V31H150.896V22.376C150.896 20.9947 150.55 19.94 149.86 19.212C149.169 18.4653 148.226 18.092 147.032 18.092C145.837 18.092 144.885 18.4653 144.176 19.212C143.485 19.94 143.14 20.9947 143.14 22.376V31H139.948V15.572H143.14V17.336C143.662 16.7013 144.325 16.2067 145.128 15.852C145.93 15.4973 146.789 15.32 147.704 15.32C148.936 15.32 150.037 15.5813 151.008 16.104C151.978 16.6267 152.725 17.3827 153.248 18.372C153.714 17.4387 154.442 16.7013 155.432 16.16C156.421 15.6 157.485 15.32 158.624 15.32ZM172.233 17.84C172.775 17.1307 173.512 16.5333 174.445 16.048C175.379 15.5627 176.433 15.32 177.609 15.32C178.953 15.32 180.176 15.656 181.277 16.328C182.397 16.9813 183.275 17.9053 183.909 19.1C184.544 20.2947 184.861 21.6667 184.861 23.216C184.861 24.7653 184.544 26.156 183.909 27.388C183.275 28.6013 182.397 29.5533 181.277 30.244C180.176 30.916 178.953 31.252 177.609 31.252C176.433 31.252 175.388 31.0187 174.473 30.552C173.559 30.0667 172.812 29.4693 172.233 28.76V38.336H169.041V15.572H172.233V17.84ZM181.613 23.216C181.613 22.152 181.389 21.2373 180.941 20.472C180.512 19.688 179.933 19.1 179.205 18.708C178.496 18.2973 177.731 18.092 176.909 18.092C176.107 18.092 175.341 18.2973 174.613 18.708C173.904 19.1187 173.325 19.716 172.877 20.5C172.448 21.284 172.233 22.208 172.233 23.272C172.233 24.336 172.448 25.2693 172.877 26.072C173.325 26.856 173.904 27.4533 174.613 27.864C175.341 28.2747 176.107 28.48 176.909 28.48C177.731 28.48 178.496 28.2747 179.205 27.864C179.933 27.4347 180.512 26.8187 180.941 26.016C181.389 25.2133 181.613 24.28 181.613 23.216Z" fill="#211B3D"/>
<g clip-path="url(#clip0_0_10)">
<path d="M31.48 9.87615L20.8974 3.77295C19.1103 2.74231 16.8898 2.74238 15.1026 3.77295L4.52004 9.87615C2.72946 10.9087 1.61719 12.8343 1.61719 14.9015V27.0984C1.61719 29.1656 2.72946 31.0913 4.51997 32.1238L15.1026 38.227C16.89 39.2578 19.1105 39.2575 20.8974 38.227L31.48 32.1238C33.2705 31.0913 34.3828 29.1656 34.3828 27.0984V14.9015C34.3828 12.8344 33.2705 10.9088 31.48 9.87615ZM31.5703 27.0984C31.5703 28.1632 30.9974 29.1551 30.075 29.687L19.4924 35.7902C18.5718 36.3212 17.4281 36.3212 16.5075 35.7902L5.92488 29.687C5.00259 29.1551 4.42969 28.1632 4.42969 27.0984V14.9015C4.42969 13.8368 5.00259 12.8449 5.92495 12.313L16.5075 6.20984C17.4282 5.67884 18.5722 5.67906 19.4925 6.20984L30.0751 12.313C30.9974 12.8449 31.5703 13.8367 31.5703 14.9015V27.0984Z" fill="#7839F3"/>
<path d="M16.6638 19.9262L11.4409 15.5062C10.8481 15.0044 9.96066 15.0783 9.45899 15.6713C8.95731 16.2644 9.03127 17.1518 9.62415 17.6535L13.5784 21L9.62415 24.3464C9.03127 24.8481 8.95738 25.7355 9.45899 26.3285C9.96186 26.9228 10.8495 26.9942 11.4409 26.4936L16.6638 22.0736C17.3282 21.5113 17.3263 20.487 16.6638 19.9262Z" fill="#7839F3"/>
<path d="M25.4677 24.0134H19.1399C18.3632 24.0134 17.7336 24.6431 17.7336 25.4199C17.7336 26.1967 18.3632 26.8264 19.1399 26.8264H25.4677C26.2443 26.8264 26.8739 26.1967 26.8739 25.4199C26.8739 24.6431 26.2443 24.0134 25.4677 24.0134Z" fill="#7839F3"/>
</g>
<defs>
<clipPath id="clip0_0_10">
<rect width="36" height="36" fill="white" transform="translate(0 3)"/>
</clipPath>
</defs>
</svg>
